#!OML:ASF F:\VICON\USERDATA\INSTALL\rory3\rory3.ASF
:FULLY-SPECIFIED
:DEGREES
379
root -1.0964 18.4265 12.9268 -5.46859 -2.11597 3.38999
lowerback 4.56899 -0.219964 -0.920961
upperback -0.577406 -0.34096 0.141632
thorax -3.15002 -0.152311 0.687031
lowerneck -6.60468 -7.43251 -9.14221
upperneck 9.1304 -9.76353 6.77813
head 4.59689 -4.78178 2.92356
rclavicle -2.11706e-014 -9.93923e-015
rhumerus -21.3869 8.27363 -84.2995
rradius 31.1459
rwrist 8.13947
rhand -26.634 -0.540791
rfingers 7.12502
rthumb -0.0666294 -30.5205
lclavicle -2.11706e-014 -9.93923e-015
lhumerus -29.7183 12.3256 77.1456
lradius 22.6618
lwrist 2.45003
lhand -24.1719 26.9076
lfingers 7.12502
lthumb 2.3113 56.8748
rfemur -5.86545 14.3759 18.2018
rtibia 34.8233
rfoot -21.7146 -12.2115
rtoes 1.36132
lfemur -1.34265 2.90544 -22.4041
ltibia 28.7222
lfoot -18.1189 7.89175
ltoes -1.3486
380
root -1.10835 18.4795 12.9448 -4.99566 -2.14107 3.49498
lowerback 4.2271 -0.246023 -1.27226
upperback -0.679955 -0.392774 0.0969977
thorax -3.06057 -0.172455 0.84016
lowerneck -6.75452 -7.63663 -9.259
upperneck 9.39562 -10.0281 6.7794
head 4.73075 -4.91218 2.91049
rclavicle 1.97294e-014 9.54166e-015
rhumerus -21.5894 8.26359 -84.3624
rradius 30.9934
rwrist 8.46991
rhand -26.1019 -0.142681
rfingers 7.12502
rthumb 0.447367 -30.122
lclavicle 1.97294e-014 9.54166e-015
lhumerus -29.6812 12.6605 76.8943
lradius 22.4137
lwrist 2.09404
lhand -24.3246 27.4504
lfingers 7.12502
lthumb 2.16385 57.4191
rfemur -5.7074 14.7989 18.0983
rtibia 33.6523
rfoot -21.1334 -12.6736
rtoes 1.50085
lfemur -1.05403 2.33078 -22.6305
ltibia 27.2622
lfoot -17.4901 8.54104
ltoes -1.39279
381
root -1.11581 18.5281 12.9658 -4.58828 -2.15197 3.56097
lowerback 3.86104 -0.263886 -1.45854
upperback -0.714961 -0.422898 0.0213999
thorax -2.88928 -0.186006 0.866626
lowerneck -7.02768 -7.90096 -9.29233
upperneck 9.6953 -10.3585 6.64933
head 4.89035 -5.07603 2.83225
rclavicle -2.08724e-015 -2.78299e-015
rhumerus -21.7476 8.13675 -84.3851
rradius 30.9731
rwrist 8.99681
rhand -25.6744 -0.150555
rfingers 7.12502
rthumb 0.860189 -30.1286
lclavicle -2.08724e-015 -2.78299e-015
lhumerus -29.5868 12.8939 76.6827
lradius 22.2515
lwrist 1.58619
lhand -24.1769 27.7968
lfingers 7.12502
lthumb 2.30653 57.7641
rfemur -5.48197 15.2119 18.0244
rtibia 32.5471
rfoot -20.6695 -13.0588
rtoes 1.75589
lfemur -0.691959 1.76647 -22.8243
ltibia 25.8751
lfoot -16.9379 9.17019
ltoes -1.21629
382
root -1.12196 18.5737 12.9888 -4.23934 -2.12587 3.53789
lowerback 3.58162 -0.31643 -1.51699
upperback -0.774338 -0.493176 -0.041251
thorax -2.79151 -0.22103 0.837542
lowerneck -7.14269 -8.07706 -9.24104
upperneck 9.88451 -10.5789 6.45458
head 4.97241 -5.19027 2.7376
rclavicle 3.97569e-015 1.15295e-014
rhumerus -21.9731 8.15432 -84.498
rradius 30.8768
rwrist 9.14932
rhand -25.9989 -0.251141
rfingers 7.12502
rthumb 0.546765 -30.2302
lclavicle 3.97569e-015 1.15295e-014
lhumerus -29.6359 12.7018 76.6072
lradius 22.2474
lwrist 1.80997
lhand -24.682 27.2007
lfingers 7.12502
lthumb 1.81871 57.1727
rfemur -5.16359 15.526 18.0631
rtibia 31.4947
rfoot -20.3376 -13.4137
rtoes 1.95315
lfemur -0.327407 1.25253 -22.9007
ltibia 24.6283
lfoot -16.4924 9.70751
ltoes -1.18133
383
root -1.1284 18.6156 13.0077 -3.85634 -2.10972 3.2683
lowerback 3.42029 -0.408179 -1.36151
upperback -0.924574 -0.605844 0.00253276
thorax -2.8536 -0.278199 0.801322
lowerneck -7.24243 -8.16925 -9.33949
upperneck 10.1995 -10.689 6.36843
head 5.09597 -5.25057 2.70726
rclavicle -1.49337e-014 -1.23246e-014
rhumerus -22.2919 8.30439 -84.6329
rradius 30.7175
rwrist 9.18579
rhand -26.3463 -1.05405
rfingers 7.12502
rthumb 0.211324 -31.0337
lclavicle -1.49337e-014 -1.23246e-014
lhumerus -29.9167 12.6519 76.4963
lradius 22.3413
lwrist 2.14269
lhand -25.5743 26.0611
lfingers 7.12502
lthumb 0.956918 56.0387
rfemur -4.87459 15.8744 18.3871
rtibia 30.42
rfoot -19.998 -13.9187
rtoes 1.71914
lfemur -0.0562973 0.814469 -22.6698
ltibia 23.472
lfoot -16.1048 10.1266
ltoes -1.01729
384
root -1.13614 18.6534 13.0237 -3.46304 -2.14065 3.11758
lowerback 3.19928 -0.468581 -1.36689
upperback -1.03946 -0.683193 0.0353059
thorax -2.84523 -0.315866 0.840904
lowerneck -7.45757 -8.28538 -9.58584
upperneck 10.5813 -10.8208 6.39937
head 5.27649 -5.31801 2.72736
rclavicle -2.95692e-014 -9.14409e-015
rhumerus -22.5668 8.25769 -84.7159
rradius 30.5014
rwrist 9.36116
rhand -26.3934 -1.66396
rfingers 7.12502
rthumb 0.165808 -31.6436
lclavicle -2.95692e-014 -9.14409e-015
lhumerus -30.1433 12.9106 76.3032
lradius 22.3543
lwrist 2.04892
lhand -25.9819 25.524
lfingers 7.12502
lthumb 0.563189 55.503
rfemur -4.67625 16.3463 18.5807
rtibia 29.3633
rfoot -19.6424 -14.4647
rtoes 1.23947
lfemur 0.135017 0.397481 -22.57
ltibia 22.4076
lfoot -15.7565 10.5977
ltoes -0.870617
